<svg xmlns="http://www.w3.org/2000/svg" width="111.565" height="103.481" viewBox="0 0 111.565 103.481">
  <path id="Path_268" data-name="Path 268" d="M109.742,91.47a7.057,7.057,0,0,1,1.848,4.62c0,1.848-.924,3.7-1.848,5.544s-2.772,1.848-5.544,1.848H7.185c-2.772,0-4.62-.924-6.468-3.7-.924-1.848-.924-4.62,0-7.391L48.763,3.7C50.61.924,52.458,0,55.23,0S59.85.924,61.7,3.7ZM55.23,67.447h0c1.848,0,2.772,0,3.7-.924,0-1.848.924-2.772.924-3.7.924-4.62,1.848-14.783,3.7-28.642a3.394,3.394,0,0,0-.924-2.772c0-.924-.924-1.848-2.772-1.848a18.9,18.9,0,0,0-10.163,0c-.924,0-1.848.924-2.772,1.848v2.772c1.848,13.859,2.772,24.022,3.7,28.642,0,.924.924,1.848,1.848,2.772S54.306,67.447,55.23,67.447Zm-5.544,23.1c.924,1.848,3.7,2.772,5.544,2.772s4.62-.924,5.544-2.772,2.772-3.7,2.772-5.544-.924-3.7-2.772-5.544q-1.386-2.772-5.544-2.772t-5.544,2.772Q46.915,82.23,46.915,85C46.915,86.85,47.839,89.622,49.687,90.546Z" transform="translate(-0.025)" fill="rgba(170,27,58,0.12)"/>
</svg>
