<svg xmlns="http://www.w3.org/2000/svg" xmlns:xlink="http://www.w3.org/1999/xlink" width="101" height="60" viewBox="0 0 101 60">
  <defs>
    <clipPath id="clip-path">
      <path id="mask" d="M1.054-34.1,14.963-51.684a2.388,2.388,0,0,1,3.382-.38,2.42,2.42,0,0,1,.376.38L32.63-34.1a4.9,4.9,0,0,1,1.054,3.041v5.593A4.84,4.84,0,0,1,28.872-20.6H4.812A4.84,4.84,0,0,1,0-25.464v-5.593A4.9,4.9,0,0,1,1.054-34.1Z" transform="translate(0 52.597)" fill="#f6f6f4" clip-rule="evenodd"/>
    </clipPath>
  </defs>
  <g id="position" transform="translate(-152 -440)">
    <ellipse id="Ellipse" cx="50.5" cy="28.5" rx="50.5" ry="28.5" transform="translate(152 443)" fill="#3497fd" opacity="0.168"/>
    <g id="triangle" transform="translate(3 -2)">
      <path id="triangle-2" data-name="triangle" d="M1.054-34.1,14.963-51.684a2.388,2.388,0,0,1,3.382-.38,2.42,2.42,0,0,1,.376.38L32.63-34.1a4.9,4.9,0,0,1,1.054,3.041v5.593A4.84,4.84,0,0,1,28.872-20.6H4.812A4.84,4.84,0,0,1,0-25.464v-5.593A4.9,4.9,0,0,1,1.054-34.1Z" transform="translate(183 494.597)" fill="#f6f6f4" fill-rule="evenodd"/>
      <path id="triangle-3" data-name="triangle" d="M1.054-34.1,14.963-51.684a2.388,2.388,0,0,1,3.382-.38,2.42,2.42,0,0,1,.376.38L32.63-34.1a4.9,4.9,0,0,1,1.054,3.041v5.593A4.84,4.84,0,0,1,28.872-20.6H4.812A4.84,4.84,0,0,1,0-25.464v-5.593A4.9,4.9,0,0,1,1.054-34.1Z" transform="translate(183 494.597)" fill="#f6f6f4" fill-rule="evenodd" opacity="0.236"/>
      <g id="Mask-2" data-name="Mask" transform="translate(183 442)" clip-path="url(#clip-path)">
        <path id="triangle-4" data-name="triangle" d="M1.054-34.1,14.963-51.684a2.388,2.388,0,0,1,3.382-.38,2.42,2.42,0,0,1,.376.38L32.63-34.1a4.9,4.9,0,0,1,1.054,3.041v5.593A4.84,4.84,0,0,1,28.872-20.6H4.812A4.84,4.84,0,0,1,0-25.464v-5.593A4.9,4.9,0,0,1,1.054-34.1Z" transform="translate(0 44.547)" fill="#3acce1" fill-rule="evenodd"/>
      </g>
    </g>
  </g>
</svg>
